<svg xmlns="http://www.w3.org/2000/svg" width="1600" height="980" viewBox="0 0 1600 980" role="img" aria-label="ADWest Layered Architecture">
  <defs>
    <style>
      .title { font: 700 30px 'Segoe UI', Arial, sans-serif; fill: #0b1324; }
      .subtitle { font: 500 14px 'Segoe UI', Arial, sans-serif; fill: #334155; }
      .section { font: 700 17px 'Segoe UI', Arial, sans-serif; fill: #0f172a; }
      .line { font: 500 13px 'Segoe UI', Arial, sans-serif; fill: #1e293b; }
      .small { font: 500 12px 'Segoe UI', Arial, sans-serif; fill: #475569; }
      .box { stroke: #94a3b8; stroke-width: 1.4; rx: 16; ry: 16; }
      .flow { stroke: #1f2937; stroke-width: 2.1; fill: none; marker-end: url(#arrow); }
      .flow2 { stroke: #475569; stroke-width: 1.8; stroke-dasharray: 7 6; fill: none; marker-end: url(#arrow2); }
    </style>

    <marker id="arrow" markerWidth="10" markerHeight="10" refX="8" refY="3" orient="auto" markerUnits="strokeWidth">
      <path d="M0,0 L0,6 L9,3 z" fill="#1f2937" />
    </marker>
    <marker id="arrow2" markerWidth="10" markerHeight="10" refX="8" refY="3" orient="auto" markerUnits="strokeWidth">
      <path d="M0,0 L0,6 L9,3 z" fill="#475569" />
    </marker>

    <linearGradient id="bg" x1="0" y1="0" x2="1" y2="1">
      <stop offset="0%" stop-color="#f8fbff" />
      <stop offset="100%" stop-color="#eef4ff" />
    </linearGradient>
    <linearGradient id="exp" x1="0" y1="0" x2="1" y2="1">
      <stop offset="0%" stop-color="#dbeafe" />
      <stop offset="100%" stop-color="#bfdbfe" />
    </linearGradient>
    <linearGradient id="web" x1="0" y1="0" x2="1" y2="1">
      <stop offset="0%" stop-color="#cffafe" />
      <stop offset="100%" stop-color="#99f6e4" />
    </linearGradient>
    <linearGradient id="api" x1="0" y1="0" x2="1" y2="1">
      <stop offset="0%" stop-color="#dcfce7" />
      <stop offset="100%" stop-color="#bbf7d0" />
    </linearGradient>
    <linearGradient id="store" x1="0" y1="0" x2="1" y2="1">
      <stop offset="0%" stop-color="#fee2e2" />
      <stop offset="100%" stop-color="#fecaca" />
    </linearGradient>
    <linearGradient id="ext" x1="0" y1="0" x2="1" y2="1">
      <stop offset="0%" stop-color="#fef3c7" />
      <stop offset="100%" stop-color="#fde68a" />
    </linearGradient>
  </defs>

  <rect x="0" y="0" width="1600" height="980" fill="url(#bg)" />

  <text x="34" y="48" class="title">ADWest Runtime Architecture (Current Implementation)</text>
  <text x="34" y="74" class="subtitle">React + Vite (3000) | NestJS API (3001, /api/v1) | PostgreSQL + Conditional In-Memory Stores</text>

  <rect class="box" x="34" y="110" width="344" height="248" fill="url(#exp)" />
  <text x="56" y="142" class="section">Experience Layer</text>
  <text x="56" y="172" class="line">Admin Workspace</text>
  <text x="56" y="194" class="line">Member Workspace</text>
  <text x="56" y="216" class="line">Public Portal + Intake Pages</text>
  <text x="56" y="248" class="small">Public Paths:</text>
  <text x="56" y="270" class="small">/, /portal, /helpdesk, /jobs, /join-us</text>
  <text x="56" y="292" class="small">/events/:id/register, /forgot-password, /reset-password</text>
  <text x="56" y="324" class="small">Authenticated Workspaces: Admin / Member</text>

  <rect class="box" x="416" y="110" width="430" height="248" fill="url(#web)" />
  <text x="438" y="142" class="section">Web Application Layer (ad-west-web)</text>
  <text x="438" y="172" class="line">App Shell: App.tsx route-mode resolution</text>
  <text x="438" y="194" class="line">Providers: Auth, Theme, Toast, ConfirmDialog</text>
  <text x="438" y="216" class="line">Shared API Wrapper: utils/api.ts + backendApi.ts</text>
  <text x="438" y="248" class="small">Session Restore Gate prevents startup route flicker</text>
  <text x="438" y="270" class="small">Role/menu-aware admin navigation and governance views</text>
  <text x="438" y="292" class="small">Public pages remain directly reachable by path design</text>
  <text x="438" y="324" class="small">Vite proxy forwards to API target in local development</text>

  <rect class="box" x="878" y="110" width="688" height="560" fill="url(#api)" />
  <text x="900" y="142" class="section">API Layer (ad-west-api / NestJS)</text>
  <text x="900" y="172" class="line">Global Prefix: /api/v1</text>
  <text x="900" y="194" class="line">Global Throttler Guard + Validation Pipe + Exception Filter</text>

  <rect class="box" x="900" y="224" width="300" height="180" fill="#ecfdf5" />
  <text x="918" y="252" class="section">Core Domains</text>
  <text x="918" y="280" class="small">CoreBusinessModule</text>
  <text x="918" y="302" class="small">ApprovalWorkflowDefinitionsModule</text>
  <text x="918" y="324" class="small">EnumValuesModule</text>
  <text x="918" y="346" class="small">HealthModule</text>
  <text x="918" y="376" class="small">Store abstraction with DB/In-memory binding</text>

  <rect class="box" x="1220" y="224" width="324" height="180" fill="#ecfdf5" />
  <text x="1238" y="252" class="section">User Management</text>
  <text x="1238" y="280" class="small">auth, admin-users, role-definitions, menu-items</text>
  <text x="1238" y="302" class="small">audit-logs, ai-chat, settings/* integration controllers</text>
  <text x="1238" y="324" class="small">gmail send/inbox via SMTP/IMAP services</text>
  <text x="1238" y="346" class="small">Admin + Member auth guards and role checks</text>

  <rect class="box" x="900" y="426" width="300" height="220" fill="#ecfdf5" />
  <text x="918" y="454" class="section">Public Gateway</text>
  <text x="918" y="482" class="small">public/helpdesk</text>
  <text x="918" y="504" class="small">public/jobs</text>
  <text x="918" y="526" class="small">public/sreni-contacts</text>
  <text x="918" y="548" class="small">gateway/helpdesk (admin)</text>
  <text x="918" y="570" class="small">gateway/jobs (admin)</text>
  <text x="918" y="602" class="small">Captcha + throttling for intake protection</text>

  <rect class="box" x="1220" y="426" width="324" height="220" fill="#ecfdf5" />
  <text x="1238" y="454" class="section">Member Services</text>
  <text x="1238" y="482" class="small">member-services/reimbursements</text>
  <text x="1238" y="504" class="small">member-services/events</text>
  <text x="1238" y="526" class="small">member-services/notifications</text>
  <text x="1238" y="548" class="small">public/events registration endpoints</text>
  <text x="1238" y="580" class="small">Shared operational guard patterns</text>

  <rect class="box" x="416" y="392" width="430" height="278" fill="url(#ext)" />
  <text x="438" y="424" class="section">Integration Layer</text>
  <text x="438" y="452" class="line">Google OAuth (start/callback + DB-first config)</text>
  <text x="438" y="474" class="line">SMTP Email Delivery (gmail/send)</text>
  <text x="438" y="496" class="line">IMAP Inbox Read (gmail/inbox)</text>
  <text x="438" y="518" class="line">AI Query Endpoint (ai-chat/query)</text>
  <text x="438" y="548" class="small">Config Endpoints:</text>
  <text x="438" y="570" class="small">settings/google-integration-config</text>
  <text x="438" y="592" class="small">settings/smtp-integration-config</text>
  <text x="438" y="624" class="small">Settings resolve DB values with environment fallback</text>

  <rect class="box" x="878" y="702" width="688" height="224" fill="url(#store)" />
  <text x="900" y="734" class="section">Data Layer (PostgreSQL + Migration Chain)</text>
  <text x="900" y="762" class="line">Canonical SQL Source: ad-docs/database-script</text>
  <text x="900" y="786" class="small">Core schema, auth, roles/menu grants, gateway/member services tables</text>
  <text x="900" y="808" class="small">Recent evolution: governance hierarchy, location metrics scope, join-us visibility, SMTP/IMAP config</text>
  <text x="900" y="830" class="small">analytics_studio_layouts and admin_password_reset_tokens included in current schema chain</text>
  <text x="900" y="862" class="small">Runtime mode: DB persistence when enabled, in-memory fallback on selected modules</text>

  <path class="flow" d="M378 236 L416 236" />
  <path class="flow" d="M846 236 L878 236" />
  <path class="flow" d="M1222 670 L1222 702" />
  <path class="flow2" d="M846 530 L878 530" />
  <path class="flow2" d="M632 358 L632 392" />

  <text x="386" y="220" class="small">HTTPS</text>
  <text x="852" y="220" class="small">REST /api/v1</text>
  <text x="1238" y="688" class="small">TypeORM + SQL</text>
  <text x="852" y="520" class="small">Config + External Service Flows</text>

  <rect x="34" y="700" width="812" height="226" rx="14" ry="14" fill="#ffffff" stroke="#cbd5e1" stroke-width="1.2" />
  <text x="56" y="732" class="section">Legend and Notes</text>
  <text x="56" y="760" class="small">Blue: user/experience layer | Cyan: web app layer | Green: API modules</text>
  <text x="56" y="782" class="small">Yellow: integration services | Red: persistent data layer</text>
  <text x="56" y="804" class="small">Solid arrow: primary request/data flow | Dashed arrow: integration or secondary runtime flow</text>
  <text x="56" y="836" class="small">Security defaults include CORS allow-list, strict validation, throttling, and common response headers.</text>
  <text x="56" y="858" class="small">Production startup enforces DB persistence mode.</text>
</svg>
